<svg xmlns="http://www.w3.org/2000/svg" version="1.1" xmlns:xlink="http://www.w3.org/1999/xlink" xmlns:svgjs="http://svgjs.com/svgjs" width="1440" height="200" preserveAspectRatio="none" viewBox="0 0 1440 200">
    <g mask="url(&quot;#SvgjsMask1073&quot;)" fill="none">
        <rect width="1440" height="200" x="0" y="0" fill="rgba(177, 177, 177, 0.27)"></rect>
        <path d="M0,318.628C62.474,318.074,126.547,312.468,179.305,279.004C232.218,245.441,261.338,187.992,292.056,133.378C325.424,74.051,386.209,12.343,365.813,-52.596C344.798,-119.507,254.877,-131.304,196.648,-170.396C155.281,-198.168,114.939,-221.968,73.138,-249.083C11.263,-289.219,-34.353,-370.254,-108.072,-368.058C-180.017,-365.915,-229.014,-293.673,-275.475,-238.7C-321.471,-184.276,-361.374,-123.912,-373.723,-53.733C-386.3,17.74,-381.28,94.679,-345.218,157.656C-310.422,218.423,-244.824,252.61,-181.36,282.202C-124.321,308.799,-62.933,319.186,0,318.628" fill="rgba(115, 115, 115, 0.27)"></path>
        <path d="M1440 744.053C1543.131 752.84 1644.4850000000001 709.504 1729.453 650.3969999999999 1812.537 592.6 1876.88 510.488 1912.135 415.61699999999996 1945.934 324.663 1929.766 227.378 1922.609 130.611 1914.908 26.492999999999995 1933.818-89.86599999999999 1868.711-171.48000000000002 1803.181-253.62400000000002 1689.307-282.608 1584.7350000000001-292.923 1490.609-302.208 1402.146-262.593 1314.882-226.11200000000002 1236.215-193.22500000000002 1172.996-140.909 1103.373-91.68900000000002 1009.631-25.41900000000001 873.451 4.812999999999988 835.146 113.035 796.972 220.888 849.452 346.068 915.321 439.613 976.414 526.375 1088.819 550.379 1180.6 603.634 1267.401 653.999 1340.007 735.534 1440 744.053" fill="rgba(239, 239, 239, 0.27)"></path>
    </g>
    <defs>
        <mask id="SvgjsMask1073">
            <rect width="1440" height="200" fill="#ffffff"></rect>
        </mask>
    </defs>
</svg>